<svg width="21" height="20" viewBox="0 0 21 20" fill="none" xmlns="http://www.w3.org/2000/svg">
<path d="M14.8206 12.2664C14.8206 13.1425 15.0699 13.4919 15.7217 13.4919C17.1746 13.4919 18.0997 11.6406 18.0997 8.56174C18.0997 3.85586 14.6704 1.60305 10.389 1.60305C5.98456 1.60305 1.97851 4.55674 1.97851 10.1387C1.97851 15.4704 5.48289 18.374 10.8646 18.374C12.6919 18.374 13.9184 18.1738 15.7947 17.548L16.1973 19.224C14.345 19.8258 12.3655 20 10.8396 20C3.78077 20 0 16.1201 0 10.1377C0 4.10513 4.38152 0 10.4141 0C16.6969 0 20.025 3.75469 20.025 8.36045C20.025 12.2653 18.7995 15.2441 14.9447 15.2441C13.1915 15.2441 12.0411 14.5432 11.8909 12.9902C11.4403 14.7174 10.2388 15.2441 8.61076 15.2441C6.43304 15.2441 4.60576 13.5659 4.60576 10.1877C4.60576 6.78348 6.2088 4.68085 9.0874 4.68085C10.6143 4.68085 11.5655 5.2816 11.9889 6.23279L12.7159 4.90613H14.8185V12.2664H14.8206ZM11.7428 8.96224C11.7428 7.58657 10.7155 7.0098 9.86441 7.0098C8.93825 7.0098 7.91301 7.7597 7.91301 9.96349C7.91301 11.7157 8.68898 12.6919 9.86441 12.6919C10.6904 12.6919 11.7428 12.1662 11.7428 10.7144V8.96224Z" fill="white"/>
</svg>
