<svg width="96" height="24" viewBox="0 0 96 24" fill="none" xmlns="http://www.w3.org/2000/svg">
<path d="M78.545 11.091C80.051 11.091 81.272 9.86999 81.272 8.36399C81.272 6.85799 80.052 5.63599 78.545 5.63599H74V18.363" stroke="white" stroke-width="2" stroke-linecap="round" stroke-linejoin="round"/>
<path d="M74 18.364H79.455C81.463 18.364 83.091 16.736 83.091 14.728C83.091 12.72 81.463 11.092 79.455 11.092H74" stroke="white" stroke-width="2" stroke-linecap="round" stroke-linejoin="round"/>
<path d="M87.64 7.44995H92.18" stroke="white" stroke-width="2" stroke-linecap="round" stroke-linejoin="round"/>
<path d="M92.802 17.1649C92.003 17.9639 90.956 18.3629 89.909 18.3629C87.65 18.3629 85.818 16.5309 85.818 14.2719C85.818 12.0129 87.65 10.1809 89.909 10.1809C92.168 10.1809 94 12.0129 94 14.2729H85.818" stroke="white" stroke-width="2" stroke-linecap="round" stroke-linejoin="round"/>
<path d="M44.7 20.37L46.78 10.97" stroke="white" stroke-width="2" stroke-linecap="round" stroke-linejoin="round"/>
<path d="M54.364 5.63604C57.8787 9.15076 57.8787 14.8492 54.364 18.3639C50.8493 21.8787 45.1508 21.8787 41.6361 18.3639C38.1214 14.8492 38.1214 9.15074 41.6361 5.63604C45.1508 2.12132 50.8493 2.12132 54.364 5.63604" stroke="white" stroke-width="2" stroke-linecap="round" stroke-linejoin="round"/>
<path d="M43.299 12.979C43.118 12.514 43 12.021 43 11.5C43 9.015 45.239 7 48 7C50.761 7 53 9.015 53 11.5C53 13.985 50.985 16 48.5 16C47.51 16 46.603 15.671 45.86 15.129" stroke="white" stroke-width="2" stroke-linecap="round" stroke-linejoin="round"/>
<path fill-rule="evenodd" clip-rule="evenodd" d="M7.496 3H16.505C18.987 3 21 5.012 21 7.496V16.505C21 18.987 18.988 21 16.504 21H7.496C5.013 21 3 18.988 3 16.504V7.496C3 5.013 5.012 3 7.496 3V3Z" stroke="white" stroke-width="2" stroke-linecap="round" stroke-linejoin="round"/>
<path d="M16.949 6.71289C16.763 6.71389 16.612 6.86489 16.612 7.05089C16.612 7.23689 16.764 7.38789 16.95 7.38789C17.136 7.38789 17.287 7.23689 17.287 7.05089C17.288 6.86389 17.136 6.71289 16.949 6.71289Z" stroke="white" stroke-width="2" stroke-linecap="round" stroke-linejoin="round"/>
<path d="M14.5456 9.45432C15.9515 10.8602 15.9515 13.1396 14.5456 14.5455C13.1397 15.9514 10.8603 15.9514 9.45443 14.5455C8.04854 13.1396 8.04854 10.8602 9.45443 9.45432C10.8603 8.04843 13.1397 8.04843 14.5456 9.45432" stroke="white" stroke-width="2" stroke-linecap="round" stroke-linejoin="round"/>
</svg>
